<?xml version="1.0" encoding="UTF-8"?>
<svg id="Layer_1" xmlns="http://www.w3.org/2000/svg" version="1.1" viewBox="0 0 80 80">
  <!-- Generator: Adobe Illustrator 30.0.0, SVG Export Plug-In . SVG Version: 2.1.1 Build 123)  -->
  <defs>
    <style>
      .st0 {
        fill: #209acf;
      }
    </style>
  </defs>
  <path class="st0" d="M21.28,18.82c.54.52,1.51,4.58,1.87,4.79,1.25.42,4.71-.09,5.51.6,1.83,1.57-2.91,3.82-3.73,4.9.04,1.35,2.23,5.25.63,5.98-1.4.63-3.87-2.08-5.22-2.55-1.27.42-3.83,2.98-5.06,2.63-2.05-.59.63-4.66.25-6.02-.63-1.3-5.47-3.25-3.51-4.93.79-.68,4.27-.19,5.52-.59.26-.18,1.32-4.28,1.86-4.8.39-.37,1.5-.37,1.89,0ZM26.22,25.65c-.98-.26-3.46,0-4.13-.43-.74-.48-1.23-2.93-1.65-3.79l-2,3.89-4,.33c.56,1.04,2.88,1.93,3.08,3.05.15.86-1.15,3.66-.85,4.06l3.66-2.2,3.66,2.2c.25-.32-1.13-3.34-.84-4.29.26-.86,2.57-1.95,3.07-2.82Z"/>
  <path class="st0" d="M60.61,18.82c.54.52,1.6,4.62,1.86,4.8,1.25.4,4.73-.09,5.52.59,1.96,1.68-2.88,3.63-3.51,4.93-.39,1.39,2.17,5.15.4,5.95-1.35.61-3.83-2.17-5.22-2.55-1.22.37-4.81,4.14-5.78,1.99-.43-.96,1.09-4.2,1.19-5.42-.72-.82-4.1-2.88-4.19-3.81-.24-2.26,4.55-1.16,5.97-1.7.36-.21,1.32-4.28,1.87-4.79.39-.37,1.5-.37,1.89,0ZM65.56,25.65c-1.55-.42-3.74.41-4.57-1.1-.15-.28-1.12-3.35-1.43-3.12-.42.86-.91,3.31-1.65,3.79-.67.43-3.14.17-4.13.43.5.87,2.81,1.96,3.07,2.82.28.94-1.09,3.97-.84,4.29l3.66-2.2,3.66,2.2c.3-.4-1-3.2-.85-4.06.2-1.12,2.52-2.01,3.08-3.05Z"/>
  <g>
    <path class="st0" d="M39.49,18.58c2.21-.68,2.37,3.7,3.4,4.96,1.43.83,6.25-.71,5.78,1.99-.17.99-3.3,2.64-3.97,3.61.03,1.49,1.51,4.11,1.04,5.48-.68,1.99-4.63-1.72-5.66-2.03-.97-.09-5.08,4.2-5.82,2.03-.47-1.36,1.02-3.99,1.04-5.48-.64-.91-3.82-2.72-3.97-3.61-.46-2.7,4.35-1.15,5.78-1.99.69-.85,1.44-4.68,2.38-4.96ZM40.22,21.42c-.58-.1-.34.08-.46.32-.39.75-.89,3.06-1.44,3.45l-4.32.46c.83,1.17,3.35,1.93,3.19,3.51-.12,1.13-.75,2.46-.96,3.6.14.18,3.05-2.28,3.87-2.22.65.04,3.54,2.39,3.68,2.22l-.92-4.34,3.14-2.76-4.32-.46-1.46-3.76Z"/>
    <path class="st0" d="M48.61,16.13c.65-.13,1.19.27,1.12.93-.04.44-2.43,2.6-2.96,3.03-.4.33-1.4,1.22-1.87,1.02l-.64-.71c-.11-.54,3.79-4.15,4.35-4.27Z"/>
    <path class="st0" d="M30.82,16.11c.43-.14.82.1,1.17.32.37.24,3.09,2.75,3.34,3.1.17.24.47.55.41.86-.44.62-.64.98-1.37.56-.63-.36-3.19-2.61-3.7-3.19-.45-.5-.57-1.41.15-1.65Z"/>
    <path class="st0" d="M39.11,11.98c.05-.18.54-.55.79-.57.28-.12.99.4.99.57v4c0,.58-1.78.58-1.78,0,0-.9-.18-3.36,0-4Z"/>
  </g>
  <path class="st0" d="M13.89,62.53c-.55-.1-1.71-1.08-1.98-1.57-1.57-2.8,2.9-8.24,5.87-8.65.16-.17-1.18-1.68-1.37-2.07-2.66-5.4,3.87-10.49,8.38-6.82,2.8,2.28,2.84,6.24.11,8.56,1.58.91,3.14,1.79,4.33,3.22,1.75-2.39,4.11-3.8,6.78-5-6.66-4.51-1.72-14.81,6.01-12.67,5.59,1.54,7.03,9.53,1.99,12.67,2.66,1.19,5.03,2.6,6.78,5,1.19-1.43,2.75-2.31,4.33-3.22-2.73-2.32-2.69-6.28.11-8.56,4.51-3.67,11.04,1.43,8.38,6.82-.19.39-1.53,1.9-1.37,2.07,2.97.41,7.44,5.85,5.87,8.65-.24.43-1.53,1.57-1.98,1.57h-13c.31,3.35-.8,5.52-4.32,5.79-4.72.35-13.11.4-17.8,0-3.29-.28-4.46-2.7-4.1-5.79h-13ZM45.35,44.38c0-2.95-2.4-5.35-5.35-5.35s-5.35,2.4-5.35,5.35,2.4,5.35,5.35,5.35,5.35-2.4,5.35-5.35ZM25.14,47.73c0-2.09-1.69-3.78-3.78-3.78s-3.78,1.69-3.78,3.78,1.69,3.78,3.78,3.78,3.78-1.69,3.78-3.78ZM62.43,47.73c0-2.09-1.69-3.78-3.78-3.78s-3.78,1.69-3.78,3.78,1.69,3.78,3.78,3.78,3.78-1.69,3.78-3.78ZM31.85,54.83c-1.45,1.45-2.94,4.22-3.17,6.28-.24,2.16-.47,5.18,2.3,5.43,5.78.53,12.37-.42,18.24,0,3.12-.37,2.25-5.64,1.48-7.71-2.82-7.66-13.09-9.76-18.85-3.99ZM20.85,53.26c-2.95.18-6.26,2.38-7.24,5.21-.4,1.14-.49,2.01.94,2.29l12.36-.11,1.28-3.61c-1.19-2.52-4.66-3.95-7.33-3.79ZM58.18,53.26c-2.36.14-5.36,1.58-6.36,3.79l1.28,3.61,12.9-.02c1-.65.69-1.38.33-2.32-1.18-3.09-4.89-5.25-8.15-5.06Z"/>
</svg>