<?xml version="1.0" encoding="UTF-8"?>
<svg id="Layer_1" xmlns="http://www.w3.org/2000/svg" version="1.1" viewBox="0 0 80 80">
  <!-- Generator: Adobe Illustrator 30.0.0, SVG Export Plug-In . SVG Version: 2.1.1 Build 123)  -->
  <defs>
    <style>
      .st0 {
        fill: #209acf;
      }
    </style>
  </defs>
  <path class="st0" d="M42.73,38.34c1.63-.31,6.83,4.81,7.42,4.81l6.19-6.7c2.08-1.95,5.61-.02,5.15,2.71-.25,1.51-3.95,5.65-3.93,6.06.25.39.52.37.92.42,2.07.23,6.35-.59,7.54,1.63.91,1.69-.26,3.81-2.13,4.03-2.66.32-9.72.29-12.41,0-1.4-.15-2.56-1.05-3.91-1.35-.85,1.96,2.9,5.15,2.13,6.56-.47.86-1.44,1.2-1.6,2.46-.39,2.94,1.87,2.59,1.62,4.57-.06.47-1.85,3.63-2.15,3.8-.94.52-2.28-.32-3.35-.13-2.11.37-1.82,1.83-2.52,3.15-.67,1.24-3.69,1.12-4.98.83-1.7-.38-.72-2.93-2.97-3.77-1.4-.53-3.02.5-3.97-.08-.18-.11-2.05-3.38-2.1-3.58-.46-1.83,1.54-2.31,1.78-3.22.02-.1-.02-1.85-.06-1.97-.29-.99-1.79-1.43-1.8-2.55-.02-1.68,2.98-3.93,2.18-6.07-1.25.28-2.33,1.19-3.63,1.35-2.18.27-10.04.31-12.12-.02-1.3-.21-2.42-1.69-2.26-3.01.39-3.23,5.72-2.55,8.04-2.63.5-.49-3.5-4.92-3.72-5.85-.52-2.23.88-4.4,3.29-4.12,2.22.26,7.24,7.49,7.84,7.49,2.46-1.53,4.55-4.08,7.42-4.81v-.4c-4.36-4.59.63-11.51,6.47-9.17,3.56,1.43,4.45,6.6,1.62,9.17v.4ZM42.56,33.99c0-2.12-1.72-3.83-3.83-3.83s-3.83,1.72-3.83,3.83,1.72,3.83,3.83,3.83,3.83-1.72,3.83-3.83ZM59.38,37.87c-.37-.36-1.29-.49-1.7-.08l-7.28,7.58c-.96.08-5.3-3.9-6.68-4.64-2.58-1.37-6.86-1.49-9.53-.28-1.61.73-6.18,5.02-7.22,4.91-.95-.1-6.1-6.8-7.43-7.69h-1.07c-.39.25-.57.62-.56,1.08.01,1.36,6.28,8.82,7.31,10.52,1.27.58,4.25-1.75,5.74-1.72,1.26.3.54,3.27.74,4.26,2.96.79,3.36-1.69,4.57-3.63.45-.22,4.1-.25,4.72-.13,1.15.21.83,2.06,1.47,2.84s2.22,1.34,3.23.92c.17-.92-.41-3.72.63-4.12,1.45-.56,4.46,2.37,6.01,1.46,2.02-2.97,4.96-6.13,6.7-9.21.33-.58,1.01-1.44.36-2.07ZM22.78,49.39l-1.75-2.17-7.1.59c-.48.42-.09,1.58.36,1.58h8.49ZM54.59,49.39h9.3c.09,0,.71-.63.66-.91-.23-1.44-6.66-.73-7.95-1.27l-.6.09-1.4,2.1ZM37.37,69.31l2.67-.09c.56-.93.44-1.95,1.35-2.7,1.5-1.24,3.09-1.65,4.94-.98l1.45-2.27c-1.98-1.65-1.55-2.98-1.67-5.29l1.66-2.26-1.38-2.21c-.68.06-1.54.48-2.19.47-.21,0-3.08-1.49-3.22-1.63-.45-.46-.49-1.58-.81-2.16l-2.85-.15c-.42,2.96-3.73,4.63-6.42,3.41-2.34,2.88.02,2.89.46,4.49.04.14.06,2.64.04,2.88-.1,1.08-1.28,1.65-1.84,2.45l1.48,2.26c.77.07,1.9-.6,2.59-.45.16.03,2.71,1.51,2.82,1.63.38.39.68,2.44.91,2.59Z"/>
  <path class="st0" d="M27.55,17.08c.31-.09.61-.07.89.1l.55.81-2.43,3.24c-.39,2.45.77,10.34-.69,11.98-.28.31-.85.52-1.26.63-1.6.42-8.24.39-10.06.19-1.21-.14-2.41-.73-2.58-2.01-.27-2.06-.24-8.42,0-10.53.14-1.24.77-1.88,2.02-2.02,2.35-.27,10.23.53,11.61-.25.69-.39,1.38-1.97,1.93-2.14ZM23.59,21.36h-9.71v10.38l.4.4h9.71s.67-.63.67-.67v-7.95c-1.62.77-4.29,5.43-5.59,5.88-.3.1-.83.16-1.1,0-.16-.09-2.26-2.74-2.34-2.91-.37-.79-.21-1.73.79-1.62s1.74,2.3,2.41,2.16l4.74-5.65Z"/>
  <path class="st0" d="M48.36,8.99c.78,1.24-2.19,3.11-2.39,4.15-.55,2.89.38,7.42,0,10.52-.16,1.29-1.07,1.88-2.3,2.02-1.51.17-9.54.22-10.67-.13-.89-.27-1.5-1.27-1.61-2.16-.17-1.48-.21-9.56.13-10.67.27-.9,1.27-1.5,2.16-1.61,3.31-.39,7.67.14,11.03.21.68-.13,2.71-3.81,3.64-2.33ZM43.27,13h-9.57l-.4.4v9.98l.4.4h10.38v-8.63c-1.17.84-4.6,5.92-5.58,6.17-.78.21-5.45-4.53-2.41-4.77l2.2,2.37,4.99-5.93Z"/>
  <path class="st0" d="M66.92,17.08c.34-.1.56-.06.88.09,1.69.81-1.95,3.31-2.15,4.32-.46,2.41.64,9.74-.26,11.33-.49.86-1.65,1.13-2.56,1.21-2.19.19-6.77.23-8.91-.01-1.93-.22-2.67-1.25-2.84-3.09-.2-2.14-.2-6.5.01-8.63.13-1.29.57-2.66,2-2.85,3.33-.44,7.91.23,11.35.17l2.47-2.55ZM62.95,21.36h-9.57l-.4.4v9.71s.63.67.67.67h9.71l.4-.4v-8.22c-1.13.8-4.39,5.61-5.31,5.88-.38.12-.8.13-1.16-.09-.62-.38-4-4.72-1.49-4.46.99.1,1.69,2.35,2.43,2.17l4.73-5.66Z"/>
  <path class="st0" d="M44.65,59.54c0,3.28-2.65,5.93-5.93,5.93s-5.93-2.65-5.93-5.93,2.65-5.93,5.93-5.93,5.93,2.65,5.93,5.93ZM42.76,59.56c0-2.24-1.81-4.05-4.05-4.05s-4.05,1.81-4.05,4.05,1.81,4.05,4.05,4.05,4.05-1.81,4.05-4.05Z"/>
</svg>