<?xml version="1.0" encoding="UTF-8"?>
<svg id="Layer_1" xmlns="http://www.w3.org/2000/svg" version="1.1" viewBox="0 0 80 80">
  <!-- Generator: Adobe Illustrator 30.0.0, SVG Export Plug-In . SVG Version: 2.1.1 Build 123)  -->
  <defs>
    <style>
      .st0 {
        fill: #209acf;
      }
    </style>
  </defs>
  <path class="st0" d="M57.32,26.43c-2.77-10.18-13.83-17.65-25.31-13.59-7.49,2.41-12.56,9.71-13.14,17.34.74-.3,1.56-.45,2.42-.43.69-6.41,4.53-12.46,11.4-15.04,10.58-4.3,21.27,2.27,24.32,11.73.36,1.13.63,2.29.76,3.46.08.57.11,1.15.09,1.76.05,0,.09.01.12.01.02-.58,0-1.16-.04-1.74-.09-1.18-.29-2.37-.62-3.5Z"/>
  <g>
    <path class="st0" d="M43.71,35c1.64-.31,6.88,4.85,7.47,4.84l6.24-6.75c2.1-1.96,5.65-.02,5.19,2.73-.25,1.52-3.98,5.7-3.96,6.11.25.39.52.37.93.42,2.09.23,6.4-.6,7.6,1.64.92,1.7-.27,3.84-2.14,4.06-2.69.32-9.79.29-12.51,0-1.41-.15-2.58-1.06-3.94-1.36-.86,1.98,2.92,5.19,2.15,6.61-.48.87-1.45,1.21-1.62,2.48-.39,2.96,1.89,2.61,1.63,4.61-.06.48-1.86,3.66-2.17,3.83-.94.53-2.3-.32-3.38-.13-2.12.38-1.83,1.85-2.54,3.17-.67,1.25-3.72,1.12-5.02.84-1.71-.38-.73-2.95-2.99-3.8-1.41-.53-3.04.51-4-.08-.18-.11-2.06-3.4-2.11-3.61-.46-1.84,1.55-2.32,1.79-3.25.03-.1-.02-1.87-.06-1.98-.29-1-1.8-1.44-1.82-2.57-.02-1.69,3-3.96,2.19-6.12-1.26.28-2.35,1.2-3.66,1.36-2.2.27-10.12.31-12.22-.02-1.31-.21-2.44-1.71-2.28-3.04.4-3.26,5.76-2.57,8.1-2.65.51-.49-3.53-4.96-3.74-5.9-.52-2.25.89-4.44,3.31-4.15,2.24.27,7.29,7.55,7.9,7.55,2.48-1.55,4.58-4.11,7.47-4.84v-.4c-4.39-4.62.63-11.6,6.52-9.24,3.59,1.44,4.48,6.65,1.63,9.24v.4ZM43.54,30.62c0-2.13-1.73-3.86-3.86-3.86s-3.86,1.73-3.86,3.86,1.73,3.86,3.86,3.86,3.86-1.73,3.86-3.86ZM60.49,34.53c-.38-.36-1.3-.49-1.71-.08l-7.34,7.64c-.96.08-5.34-3.93-6.73-4.68-2.6-1.38-6.92-1.5-9.61-.28-1.62.73-6.23,5.06-7.27,4.95-.96-.1-6.15-6.85-7.49-7.75h-1.08c-.4.25-.57.62-.57,1.09.01,1.37,6.33,8.89,7.37,10.6,1.28.59,4.28-1.76,5.78-1.73,1.27.31.54,3.3.75,4.29,2.99.79,3.38-1.7,4.6-3.65.46-.22,4.13-.25,4.76-.13,1.16.21.84,2.07,1.48,2.86.67.82,2.24,1.35,3.26.92.17-.93-.41-3.75.63-4.16,1.46-.57,4.5,2.39,6.05,1.47,2.03-3,5-6.17,6.76-9.28.33-.59,1.02-1.45.36-2.08ZM23.6,46.14l-1.76-2.18-7.16.59c-.48.43-.09,1.59.36,1.59h8.56ZM55.66,46.14h9.37c.09,0,.71-.63.67-.92-.23-1.45-6.71-.74-8.02-1.28l-.61.09-1.42,2.11ZM38.31,66.21l2.69-.09c.56-.94.44-1.96,1.36-2.72,1.51-1.25,3.11-1.66,4.97-.99l1.46-2.28c-1.99-1.66-1.57-3-1.69-5.33l1.67-2.27-1.39-2.22c-.68.06-1.56.49-2.21.47-.21,0-3.1-1.5-3.24-1.64-.45-.46-.49-1.59-.81-2.18l-2.87-.15c-.42,2.98-3.76,4.66-6.47,3.44-2.36,2.9.02,2.92.46,4.52.04.14.07,2.66.04,2.9-.1,1.09-1.29,1.67-1.86,2.47l1.49,2.28c.78.07,1.91-.6,2.61-.46.16.03,2.73,1.52,2.85,1.64.38.4.69,2.46.92,2.61Z"/>
    <path class="st0" d="M45.64,56.37c0,3.3-2.68,5.98-5.98,5.98s-5.98-2.68-5.98-5.98,2.68-5.98,5.98-5.98,5.98,2.68,5.98,5.98ZM43.74,56.39c0-2.25-1.83-4.08-4.08-4.08s-4.08,1.83-4.08,4.08,1.83,4.08,4.08,4.08,4.08-1.83,4.08-4.08Z"/>
  </g>
</svg>