<?xml version="1.0" encoding="UTF-8"?>
<svg id="Layer_1" xmlns="http://www.w3.org/2000/svg" version="1.1" viewBox="0 0 1124 442">
  <!-- Generator: Adobe Illustrator 29.0.0, SVG Export Plug-In . SVG Version: 2.1.0 Build 186)  -->
  <defs>
    <style>
      .st0 {
        fill: #3e3c59;
      }

      .st1 {
        fill: #3c3b59;
      }

      .st2 {
        fill: #ef4363;
      }
    </style>
  </defs>
  <g>
    <g>
      <path class="st2" d="M446.27,165.52c5.79,0,10.81-2.12,15.07-6.37,4.25-4.02,6.37-9.05,6.37-15.07v-.35c0-5.91-2.12-11-6.37-15.24-4.26-4.26-9.28-6.38-15.07-6.38h-26.59v-51.22c0-5.91-2.12-11-6.38-15.24-4.25-4.14-9.27-6.21-15.07-6.21h-.53c-5.79,0-10.81,2.07-15.07,6.21-4.25,4.25-6.37,9.33-6.37,15.24v67.86c1.01,2.68,1.94,5.4,2.79,8.14,4.62,14.82,7.09,30.58,7.09,46.94s-2.46,31.95-7.09,46.74c-.86,2.76-1.78,5.47-2.79,8.16v21.91c0,15.24,5.43,28.36,16.3,39.35,11,10.88,24.16,16.31,39.52,16.31h14.19c5.79,0,10.81-2.12,15.07-6.38,4.25-4.01,6.37-9.04,6.37-15.07v-.35c0-5.9-2.12-10.98-6.37-15.24-4.26-4.25-9.28-6.38-15.07-6.38h-14.19c-3.54,0-6.5-1.17-8.86-3.54-2.36-2.36-3.54-5.26-3.54-8.68v-105.11h26.59v-.03Z"/>
      <path class="st2" d="M671.1,181.65c1.42,2.95,2.13,5.97,2.13,9.04,0,2.48-.47,4.96-1.42,7.44-2.01,5.56-5.79,9.57-11.34,12.05-16.54,7.44-38.28,17.25-65.22,29.42-33.44,15.13-53.05,24.05-58.84,26.76,8.98,11.34,22.98,17.01,42.01,17.01,12.64,0,24.1-3.72,34.38-11.17,10.04-7.32,17.07-16.78,21.09-28.36,3.43-9.69,10.28-14.53,20.56-14.53,7.32,0,13.17,3.07,17.55,9.22,2.72,3.78,4.08,7.74,4.08,11.88,0,2.48-.47,5.02-1.42,7.62-6.97,20.21-19.2,36.51-36.69,48.92-17.72,12.88-37.58,19.32-59.55,19.32-28.12,0-52.17-9.98-72.14-29.95-19.97-19.97-29.95-44.01-29.95-72.14s9.98-52.17,29.95-72.14c19.97-19.97,44.01-29.95,72.14-29.95,20.32,0,38.87,5.56,55.65,16.66,16.66,10.87,29.01,25.17,37.04,42.89h-.01ZM578.4,165.87c-16.31,0-30.19,5.73-41.65,17.19-11.34,11.46-17.01,25.35-17.01,41.65v1.24l99.08-44.49c-8.75-10.4-22.22-15.6-40.41-15.6h-.01Z"/>
      <path class="st2" d="M824.69,126.88c10.04,3.19,15.06,10.04,15.06,20.56v.89c0,7.21-2.9,12.94-8.68,17.19-4.02,2.84-8.15,4.25-12.41,4.25-2.25,0-4.55-.35-6.91-1.06-5.79-1.89-11.76-2.84-17.9-2.84-16.31,0-30.19,5.73-41.65,17.19-11.34,11.46-17.01,25.35-17.01,41.65s5.67,30.01,17.01,41.47c11.46,11.46,25.34,17.19,41.65,17.19,6.14,0,12.11-.94,17.9-2.84,2.24-.71,4.49-1.06,6.73-1.06,4.37,0,8.57,1.42,12.58,4.25,5.79,4.25,8.68,10.04,8.68,17.37,0,10.4-5.02,17.25-15.06,20.56-9.93,3.07-20.21,4.61-30.84,4.61-28.12,0-52.17-9.98-72.14-29.95-19.97-19.97-29.95-44.01-29.95-72.14s9.98-52.17,29.95-72.14c19.97-19.97,44.01-29.95,72.14-29.95,10.63,0,20.91,1.6,30.84,4.79h0Z"/>
      <path class="st2" d="M880.97,49.43c5.79,0,10.81,2.07,15.07,6.2,4.25,4.25,6.38,9.33,6.38,15.24v61.68c9.33-6.97,23.45-10.46,42.36-10.46,23.51,0,43.66,8.39,60.44,25.17s25.17,36.98,25.17,60.62v96.95c0,6.03-2.13,11.05-6.38,15.07-4.02,4.25-9.04,6.38-15.06,6.38h-.36c-5.91,0-10.99-2.13-15.24-6.38-4.25-4.02-6.38-9.04-6.38-15.07v-96.95c0-11.7-4.08-21.68-12.23-29.95-8.27-8.27-18.26-12.41-29.95-12.41s-21.86,4.14-30.13,12.41c-8.15,8.27-12.23,18.26-12.23,29.95v96.95c0,6.03-2.13,11.05-6.38,15.07-4.25,4.25-9.28,6.38-15.07,6.38h-.53c-5.79,0-10.81-2.13-15.06-6.38-4.25-4.02-6.38-9.04-6.38-15.07V70.87c0-5.91,2.13-10.99,6.38-15.24,4.25-4.13,9.27-6.2,15.06-6.2h.53-.01Z"/>
    </g>
    <g>
      <path class="st1" d="M203.21,54.74c-.61.21-1.25.41-1.86.66.03-.08.06-.16.08-.24.59-.13,1.18-.28,1.77-.41h0Z"/>
      <path class="st1" d="M201.44,55.15c-.02.08-.05.16-.08.24.61-.24,1.25-.44,1.86-.66-.59.13-1.18.28-1.77.41h0Z"/>
      <path class="st2" d="M259.38,66.55c0,2.81-.46,5.49-1.31,7.99-2.19,6.46-6.96,11.68-13.08,14.57-3.35,1.58-7.1,2.46-11.06,2.46s-7.99-.95-11.43-2.64c-8.3-4.08-14.02-12.49-14.02-22.39,0-2.9.49-5.69,1.4-8.3.46-.17.92-.33,1.38-.49-.44.1-.88.21-1.31.31,3.5-9.87,12.96-16.98,23.99-16.98s20.51,7.14,24,17.03c.93,2.64,1.44,5.48,1.44,8.42v.02Z"/>
      <path class="st1" d="M108.6,180.06c0,40.75,20.07,78.41,49.36,102.43l-19.35,12.6c-27.69-25.63-45-62.39-45-103.04,0-62.38,40.97-120.58,107.82-136.9-.02.08-.05.16-.08.24-51.31,18.31-92.75,69.9-92.75,124.67Z"/>
      <path class="st2" d="M184.38,322.88c-2.43-.71-4.88-1.55-7.37-2.51-14.2-6.26-27.16-14.85-38.4-25.28l19.35-12.6c5.34,4.39,9.54,7.14,15.55,10.65,9.3,5.02,17.35,6.97,23.98,6.15,14.18-1.74,21.79-16.18,20.95-40.35V96.96c4.67,2.27,9.93,3.55,15.48,3.55s10.45-1.18,14.99-3.33v159.04c1.63,56.48-27.52,77.53-64.53,66.67h0Z"/>
      <path class="st1" d="M203.21,54.74c-.61.21-1.25.41-1.86.66.03-.08.06-.16.08-.24.59-.13,1.18-.28,1.77-.41h0Z"/>
      <path class="st1" d="M374.26,192.04c0,14.5-2.2,28.5-6.32,41.69-.76,2.46-1.59,4.88-2.49,7.27-19.91,53.33-71.33,91.34-131.49,91.34,68.88-6.46,122.55-62.9,122.55-131.08,0-57.06-37.51-105.73-89.87-123.83,1.14-3.38,1.75-6.98,1.75-10.8s-.7-7.82-1.93-11.43c45.68,10.87,82.78,44.19,98.98,87.71.9,2.39,1.73,4.81,2.49,7.26,4.12,13.22,6.32,27.28,6.32,41.87h0Z"/>
    </g>
  </g>
  <g>
    <path class="st0" d="M128.91,388.35c0,3.22-.58,5.48-1.74,6.79-1.36,1.59-3.27,2.61-5.71,3.06l-1.3.24v-4.65c1.47-.12,2.55-.75,3.24-1.9.45-.73.67-2.2.67-4.4v-34.93h4.83v35.78h.01ZM128.91,348.59h-4.83v-8.26h4.83v8.26Z"/>
    <path class="st0" d="M169.77,370v17.49h-4.65v-5.44c-3.78,4.32-8.41,6.4-13.89,6.24-4.79-.16-8.88-2.02-12.25-5.57-3.37-3.55-5.06-7.77-5.06-12.66s1.81-9.47,5.44-13.12,7.97-5.37,13.03-5.17c4.89.16,9.05,2.03,12.48,5.6s5.06,7.78,4.89,12.63h0ZM165.12,369.66c-.08-3.68-1.39-6.82-3.92-9.44-2.53-2.61-5.58-3.92-9.13-3.92s-6.89,1.31-9.5,3.92c-2.62,2.62-3.94,5.78-3.98,9.5-.08,3.68,1.13,6.9,3.65,9.66,2.51,2.76,5.55,4.22,9.1,4.38,3.84.16,7.12-1.17,9.84-4.02,2.72-2.84,4.04-6.2,3.95-10.08h0Z"/>
    <path class="st0" d="M224.81,387.49h-4.83v-21.41c0-2.69-.77-4.99-2.32-6.91s-3.59-2.87-6.12-2.87-4.78.84-6.64,2.51-2.78,3.75-2.78,6.24v22.45h-4.89v-22.45c0-2.49-.93-4.57-2.78-6.24-1.86-1.67-4.07-2.51-6.64-2.51s-4.55.95-6.06,2.84c-1.51,1.9-2.26,4.21-2.26,6.94v21.41h-4.83v-20.86c0-4.36,1.24-7.87,3.73-10.52,2.32-2.49,5.38-3.89,9.17-4.22,5.06-.41,9.09,1.75,12.11,6.48,3.02-4.73,7.05-6.89,12.11-6.48,3.79.33,6.87,1.73,9.24,4.22,2.53,2.65,3.79,6.16,3.79,10.52v20.86Z"/>
    <path class="st0" d="M260.53,387.49h-4.65v-20.31c0-2.94-1.09-5.47-3.27-7.61-2.18-2.14-4.73-3.17-7.65-3.09-2.96.04-5.46,1.03-7.5,2.97s-3.05,4.39-3.05,7.37v20.67h-4.65v-47.16h4.65v17.25c2.66-3.47,6.07-5.3,10.24-5.5,4.33-.2,8.06,1.22,11.19,4.28,3.13,3.06,4.69,6.83,4.69,11.31v19.82h0Z"/>
    <path class="st0" d="M295.83,372.51c0,4.53-1.46,8.3-4.37,11.31-2.92,3.02-6.6,4.53-11.04,4.53s-8.13-1.51-11.04-4.53c-2.92-3.02-4.37-6.79-4.37-11.31v-19.88h4.65v20.47c0,2.94,1.08,5.46,3.23,7.57,2.15,2.1,4.66,3.15,7.54,3.15s5.38-1.05,7.54-3.15c2.15-2.1,3.23-4.63,3.23-7.57v-20.47h4.65v19.88h-.02Z"/>
    <path class="st0" d="M314.73,356.61c-2.16.08-3.91.67-5.26,1.77-1.35,1.1-2.26,2.06-2.75,2.87-.77,1.35-1.16,3.14-1.16,5.38v20.86h-4.89v-34.86h4.34v4.95c.98-1.87,2.43-3.32,4.34-4.34,1.75-.94,3.55-1.37,5.38-1.28v4.65h0Z"/>
    <path class="st0" d="M322.98,348.47h-4.65v-8.14h4.65v8.14ZM322.98,387.49h-4.65v-34.86h4.65v34.86Z"/>
    <path class="st0" d="M359.56,352.63l-19.76,47.04h-4.98l5.23-13.25-13.34-33.79h5.06l11.15,27.74,11.79-27.74h4.85Z"/>
    <path class="st0" d="M394.12,370v17.49h-4.65v-5.44c-3.78,4.32-8.41,6.4-13.89,6.24-4.79-.16-8.88-2.02-12.25-5.57-3.37-3.55-5.06-7.77-5.06-12.66s1.81-9.47,5.44-13.12,7.97-5.37,13.03-5.17c4.89.16,9.05,2.03,12.48,5.6,3.43,3.57,5.06,7.78,4.89,12.63h0ZM389.47,369.66c-.08-3.68-1.39-6.82-3.92-9.44-2.53-2.61-5.58-3.92-9.13-3.92s-6.89,1.31-9.5,3.92c-2.62,2.62-3.94,5.78-3.98,9.5-.08,3.68,1.13,6.9,3.65,9.66,2.51,2.76,5.55,4.22,9.1,4.38,3.84.16,7.12-1.17,9.84-4.02,2.72-2.84,4.04-6.2,3.95-10.08h0Z"/>
    <path class="st0" d="M442.31,388.23c-8.48,0-12.72-3.61-12.72-10.83v-37h4.65v12.17h8.07v4.34h-8.07v19.7c0,5.18,2.69,7.77,8.07,7.77v3.85h0Z"/>
    <path class="st0" d="M477.42,371.65h-31.32c.37,3.51,1.85,6.4,4.46,8.69,2.61,2.28,5.69,3.41,9.24,3.36,5.5-.08,9.44-2.63,11.8-7.65h4.95c-1.31,3.75-3.51,6.73-6.61,8.93-3.1,2.2-6.54,3.32-10.34,3.36-4.77.08-8.99-1.66-12.66-5.23s-5.55-7.82-5.63-12.75c-.12-5.22,1.72-9.71,5.54-13.49,3.81-3.77,8.31-5.51,13.49-5.23,4.65.29,8.69,2.2,12.11,5.75,3.3,3.51,4.95,7.42,4.95,11.74v2.51h.02ZM472.84,367.37c-.65-3.26-2.18-5.9-4.59-7.92-2.41-2.02-5.28-3.05-8.62-3.09s-6.27.96-8.78,3-4.09,4.71-4.74,8.01h26.73,0Z"/>
    <path class="st0" d="M517.73,377.22l-.49,1.04c-3.67,6.77-9.34,10.11-17,10.03-5.06-.04-9.42-1.81-13.09-5.32-3.67-3.51-5.53-7.77-5.57-12.78-.08-5.06,1.72-9.39,5.41-13s8.1-5.45,13.24-5.54c3.67-.04,7.09.92,10.28,2.87,3.02,1.88,5.18,4.24,6.48,7.09l.67,1.53h-5.27c-2.61-4.52-6.62-6.85-12.01-6.97-3.6-.08-6.82,1.23-9.68,3.92-2.98,2.78-4.47,6.07-4.47,9.87s1.39,7.06,4.17,9.78,6.07,4.06,9.87,4.02c5.43-.08,9.5-2.26,12.2-6.54h5.27-.01Z"/>
    <path class="st0" d="M550.88,387.49h-4.65v-20.31c0-2.94-1.09-5.47-3.27-7.61-2.18-2.14-4.73-3.17-7.65-3.09-2.96.04-5.46,1.03-7.5,2.97s-3.05,4.39-3.05,7.37v20.67h-4.65v-47.16h4.65v17.25c2.66-3.47,6.07-5.3,10.24-5.5,4.33-.2,8.06,1.22,11.19,4.28s4.69,6.83,4.69,11.31v19.82h0Z"/>
    <path class="st0" d="M586.11,387.49h-4.65v-20.37c0-2.94-1.08-5.46-3.23-7.59-2.15-2.12-4.66-3.18-7.53-3.18s-5.45,1.06-7.6,3.18c-2.15,2.12-3.23,4.65-3.23,7.59v20.37h-4.65v-19.88c0-4.53,1.47-8.29,4.4-11.29,2.94-3,6.63-4.5,11.07-4.5s8.07,1.5,11.01,4.5,4.4,6.76,4.4,11.29v19.88h0Z"/>
    <path class="st0" d="M626.85,370.06c0,5.01-1.83,9.35-5.47,13-3.65,3.65-7.98,5.39-13,5.23-4.85-.12-8.96-1.96-12.32-5.51-3.36-3.55-5.05-7.77-5.05-12.66s1.81-9.47,5.44-13.12,7.95-5.39,12.97-5.23c4.85.16,8.97,2.03,12.35,5.6s5.08,7.8,5.08,12.69ZM622.2,369.69c-.12-3.69-1.44-6.84-3.96-9.46-2.51-2.62-5.55-3.93-9.1-3.93-3.72-.04-6.89,1.26-9.5,3.9-2.62,2.64-3.94,5.83-3.98,9.55-.08,3.69,1.12,6.91,3.62,9.68,2.49,2.77,5.54,4.21,9.13,4.33,3.84.2,7.12-1.13,9.84-3.99,2.72-2.87,4.04-6.23,3.96-10.08h-.01Z"/>
    <path class="st0" d="M636.21,387.49h-4.65v-47.16h4.65v47.16Z"/>
    <path class="st0" d="M677.31,370.06c0,5.01-1.83,9.35-5.47,13-3.65,3.65-7.98,5.39-13,5.23-4.85-.12-8.96-1.96-12.32-5.51-3.36-3.55-5.05-7.77-5.05-12.66s1.81-9.47,5.44-13.12,7.95-5.39,12.97-5.23c4.85.16,8.97,2.03,12.35,5.6s5.08,7.8,5.08,12.69ZM672.66,369.69c-.12-3.69-1.44-6.84-3.96-9.46-2.51-2.62-5.55-3.93-9.1-3.93-3.72-.04-6.89,1.26-9.5,3.9-2.62,2.64-3.94,5.83-3.98,9.55-.08,3.69,1.12,6.91,3.62,9.68,2.49,2.77,5.54,4.21,9.13,4.33,3.84.2,7.12-1.13,9.84-3.99,2.72-2.87,4.04-6.23,3.96-10.08h-.01Z"/>
    <path class="st0" d="M717.86,369.76v16.09c0,4.4-1.8,8.05-5.41,10.95-3.61,2.89-7.74,4.26-12.39,4.1-4.16-.16-7.75-1.43-10.76-3.79-2.86-2.28-4.77-5.2-5.75-8.75h4.52c.69,2.41,2.24,4.47,4.64,6.21,2.4,1.73,5.02,2.6,7.87,2.6,3.42-.04,6.38-1.23,8.88-3.58,2.5-2.35,3.75-5.15,3.75-8.41v-3.3c-3.42,3.88-7.69,5.92-12.82,6.12-5.01.16-9.32-1.58-12.94-5.22s-5.43-8.01-5.43-13.1,1.68-9.1,5.05-12.64c3.36-3.54,7.47-5.39,12.32-5.56,5.02-.12,9.37,1.64,13.06,5.29s5.49,7.98,5.41,13h0ZM713.21,370.09c.12-3.84-1.18-7.19-3.89-10.05-2.72-2.86-6-4.21-9.84-4.05-3.6.16-6.64,1.63-9.13,4.38-2.49,2.76-3.72,5.98-3.68,9.65.08,3.72,1.43,6.89,4.05,9.5,2.61,2.62,5.76,3.92,9.44,3.92s6.65-1.31,9.16-3.92c2.51-2.61,3.81-5.76,3.89-9.44h0Z"/>
    <path class="st0" d="M749.91,352.63l-19.76,47.04h-4.98l5.23-13.25-13.35-33.79h5.06l11.15,27.74,11.79-27.74h4.86Z"/>
    <path class="st0" d="M806.43,377.1c.24,3.14-.86,5.86-3.3,8.17-2.45,2.3-5.26,3.35-8.44,3.15-2.94-.2-5.39-1.39-7.37-3.55-1.98-2.16-2.97-4.73-2.97-7.71h4.83v1.17c0,1.19.65,2.43,1.96,3.7,1.3,1.28,2.69,1.89,4.16,1.85,1.96-.04,3.51-.63,4.65-1.78,1.02-1.06,1.55-2.45,1.59-4.17.04-2.99-1.65-5.03-5.09-6.14l-4.09-1.3c-4.28-1.35-6.52-4.26-6.73-8.75-.12-2.69.79-5,2.73-6.91,1.94-1.92,4.28-2.94,7.03-3.06,2.37-.12,4.59.64,6.66,2.29,2.06,1.65,3.18,3.7,3.34,6.15v1.04h-4.89v-.8c0-1.24-.52-2.24-1.56-3s-2.23-1.15-3.58-1.15c-1.3.04-2.44.51-3.39,1.41-.96.9-1.46,2.03-1.5,3.38-.16,2.5,1.33,4.28,4.46,5.35l4.04,1.35c4.65,1.59,7.14,4.69,7.46,9.3h0Z"/>
    <path class="st0" d="M845.33,370.06c0,5.01-1.83,9.35-5.47,13-3.65,3.65-7.98,5.39-13,5.23-4.85-.12-8.96-1.96-12.32-5.51-3.36-3.55-5.05-7.77-5.05-12.66s1.81-9.47,5.44-13.12,7.95-5.39,12.97-5.23c4.85.16,8.97,2.03,12.35,5.6s5.08,7.8,5.08,12.69ZM840.68,369.69c-.12-3.69-1.44-6.84-3.96-9.46-2.51-2.62-5.55-3.93-9.1-3.93-3.72-.04-6.89,1.26-9.5,3.9-2.62,2.64-3.94,5.83-3.98,9.55-.08,3.69,1.12,6.91,3.62,9.68,2.49,2.77,5.54,4.21,9.13,4.33,3.84.2,7.12-1.13,9.84-3.99,2.72-2.87,4.04-6.23,3.96-10.08h-.01Z"/>
    <path class="st0" d="M854.69,387.49h-4.65v-47.16h4.65v47.16Z"/>
    <path class="st0" d="M890.77,372.51c0,4.53-1.46,8.3-4.37,11.31-2.92,3.02-6.6,4.53-11.04,4.53s-8.13-1.51-11.04-4.53c-2.92-3.02-4.37-6.79-4.37-11.31v-19.88h4.65v20.47c0,2.94,1.08,5.46,3.23,7.57,2.15,2.1,4.66,3.15,7.54,3.15s5.38-1.05,7.53-3.15,3.23-4.63,3.23-7.57v-20.47h4.65v19.88h-.01Z"/>
    <path class="st0" d="M908.69,388.23c-8.48,0-12.72-3.61-12.72-10.83v-37h4.65v12.17h8.07v4.34h-8.07v19.7c0,5.18,2.69,7.77,8.07,7.77v3.85h0Z"/>
    <path class="st0" d="M917.44,348.47h-4.65v-8.14h4.65v8.14ZM917.44,387.49h-4.65v-34.86h4.65v34.86Z"/>
    <path class="st0" d="M958.36,370.06c0,5.01-1.83,9.35-5.47,13-3.65,3.65-7.98,5.39-13,5.23-4.85-.12-8.96-1.96-12.32-5.51-3.36-3.55-5.05-7.77-5.05-12.66s1.81-9.47,5.44-13.12,7.95-5.39,12.97-5.23c4.85.16,8.97,2.03,12.35,5.6s5.08,7.8,5.08,12.69ZM953.71,369.69c-.12-3.69-1.44-6.84-3.96-9.46-2.51-2.62-5.55-3.93-9.1-3.93-3.72-.04-6.89,1.26-9.5,3.9-2.62,2.64-3.94,5.83-3.98,9.55-.08,3.69,1.12,6.91,3.62,9.68,2.49,2.77,5.54,4.21,9.13,4.33,3.84.2,7.12-1.13,9.84-3.99,2.72-2.87,4.04-6.23,3.96-10.08h-.01Z"/>
    <path class="st0" d="M993.83,387.49h-4.65v-20.37c0-2.94-1.08-5.46-3.23-7.59-2.15-2.12-4.66-3.18-7.53-3.18s-5.45,1.06-7.6,3.18c-2.15,2.12-3.23,4.65-3.23,7.59v20.37h-4.65v-19.88c0-4.53,1.47-8.29,4.4-11.29,2.94-3,6.63-4.5,11.07-4.5s8.07,1.5,11.01,4.5,4.4,6.76,4.4,11.29v19.88h0Z"/>
    <path class="st0" d="M1020.81,377.1c.24,3.14-.86,5.86-3.3,8.17-2.45,2.3-5.26,3.35-8.44,3.15-2.94-.2-5.39-1.39-7.37-3.55-1.98-2.16-2.97-4.73-2.97-7.71h4.83v1.17c0,1.19.65,2.43,1.96,3.7,1.3,1.28,2.69,1.89,4.16,1.85,1.96-.04,3.51-.63,4.65-1.78,1.02-1.06,1.55-2.45,1.59-4.17.04-2.99-1.65-5.03-5.09-6.14l-4.09-1.3c-4.28-1.35-6.52-4.26-6.73-8.75-.12-2.69.79-5,2.73-6.91,1.94-1.92,4.28-2.94,7.03-3.06,2.37-.12,4.59.64,6.66,2.29,2.06,1.65,3.18,3.7,3.34,6.15v1.04h-4.89v-.8c0-1.24-.52-2.24-1.56-3s-2.23-1.15-3.58-1.15c-1.3.04-2.44.51-3.39,1.41-.96.9-1.46,2.03-1.5,3.38-.16,2.5,1.33,4.28,4.46,5.35l4.04,1.35c4.65,1.59,7.14,4.69,7.46,9.3h0Z"/>
  </g>
</svg>