<?xml version="1.0" encoding="UTF-8"?>
<svg id="Layer_1" xmlns="http://www.w3.org/2000/svg" version="1.1" viewBox="0 0 37 32">
  <!-- Generator: Adobe Illustrator 30.0.0, SVG Export Plug-In . SVG Version: 2.1.1 Build 123)  -->
  <defs>
    <style>
      .st0 {
        fill: #209acf;
      }
    </style>
  </defs>
  <path class="st0" d="M19.18,18.09c-.8-3.35,3.21-2.63,5.26-3.17l2.43-3.81c1.27-1.14,3.46-.47,3.7,1.28.22,1.63.13,3.67.2,5.36.04.96.18,1.95.2,2.92.09,3.15-2.41,2.87-4.78,3.07l-.1,4.24c-.03.22-.2.37-.43.35-.1-.01-.19-.06-.26-.14-.25-.32-.03-2.94,0-3.52.02-.35-.09-1.26.09-1.47,2.01-.81,4.79.51,4.69-2.63-.08-2.68-.37-5.39-.4-8.08-.27-.89-.94-1.32-1.87-1.11-.87.2-2.25,3.45-2.96,4.16-.16.08-.33.14-.5.18-1.12.27-2.83.19-3.85.54-1.22.42-1.04,2.2.66,2.12,1.09-.06,3.19-.37,4.26-.61.5-.11.72-.2,1.05-.61.3-.36,1.12-2.03,1.36-2.15.27-.14.54.01.59.3.04.46-1.21,1.85-1.34,2.36-.12.48.14,1.94-.16,2.18-.35.27-3.08.23-3.69.5-.72.26-.99.85-1.05,1.58-.16,1.86.24,4.16,0,5.95-.08.64-.72.6-.79-.2-.13-1.51-.13-4.35,0-5.86.25-2.85,2.79-2.26,4.87-2.69v-.77s-5.01.78-5.01.78c-.96.11-1.69-.48-2.68-.29v9.21s-.24.25-.35.25c-.12.05-.43-.18-.43-.25v-9.21h-3.36c-.05,0-.3-.18-.33-.26-.07-.13,0-.52.13-.52h4.83Z"/>
  <path class="st0" d="M10.89,23.84c-2.15-.37-4.95.05-4.87-2.97.42-2.91.29-6.07.69-8.96.17-1.19,1.36-1.85,2.48-1.52,1.24.36,2.14,2.93,2.93,3.91.27.04,2.8-1.17,3.35-1.32,2.36-.66,3.49,2.2,1.62,3.38-.52.33-4.64,2-5.21,2.1-.42.08-.88.03-1.29-.07v.77c2.08.43,4.63-.16,4.88,2.69.13,1.51.13,4.35,0,5.86-.03.39-.06.64-.52.62-.21-.08-.24-.22-.27-.42-.24-1.77.17-4.1,0-5.95-.04-.45-.17-.93-.5-1.25-.78-.74-3.19-.46-4.24-.83-.3-.24-.04-1.7-.16-2.18-.13-.53-1.39-1.91-1.34-2.36.05-.29.32-.44.59-.3.63.32,1.23,3.1,2.57,2.68l5.16-2.05c.88-.7.42-2.06-.74-2.02-1.23.35-2.57,1.19-3.78,1.5-.52.13-.52-.02-.78-.39-.75-1.08-1.31-2.3-2.09-3.37-.45-.41-1.28-.4-1.66.1s-.29,1.93-.34,2.58c-.19,2.21-.51,4.63-.58,6.82-.08,2.63,3.05,1.7,4.75,2.32.03.02.12.2.12.22v4.68s-.24.25-.35.25c-.12.05-.43-.18-.43-.25v-4.24Z"/>
  <path class="st0" d="M15.35,3.79c1.07-.18,4.48-.13,5.63-.03.59.06,1.14.4,1.22,1.03.09.74.09,2.77,0,3.51-.06.51-.54.94-1.03,1.01-1.26.18-3.2-.23-4.36.03-.65.15-1.85,2.27-2.41.72.18-1.64-.23-3.78.01-5.36.08-.5.46-.83.94-.91ZM15.18,9.61c.34-.2.67-.62.98-.82.83-.55,3.57-.12,4.72-.25.33-.04.5-.08.54-.43.08-.68.07-2.34,0-3.03-.04-.36-.04-.48-.44-.53-.96-.13-4.41-.13-5.37,0-.13.02-.43.12-.43.25v4.82Z"/>
  <path class="st0" d="M12.23,6.55c0,1.53-1.24,2.78-2.78,2.78s-2.78-1.24-2.78-2.78,1.24-2.78,2.78-2.78,2.78,1.24,2.78,2.78ZM11.45,6.55c0-1.1-.89-2-2-2s-2,.89-2,2,.89,2,2,2,2-.89,2-2Z"/>
  <path class="st0" d="M30.31,6.55c0,1.53-1.24,2.78-2.78,2.78s-2.78-1.24-2.78-2.78,1.24-2.78,2.78-2.78,2.78,1.24,2.78,2.78ZM29.54,6.55c0-1.1-.89-2-2-2s-2,.89-2,2,.89,2,2,2,2-.89,2-2Z"/>
  <path class="st0" d="M20.2,5.42c.32.05.27.35.23.62l-.13.16h-3.9s-.25-.24-.25-.35l.25-.43c1.15.13,2.7-.18,3.8,0Z"/>
  <path class="st0" d="M18.45,6.88c.37.11.23.78-.1.78h-1.95s-.25-.24-.25-.35c-.05-.12.18-.43.25-.43.45,0,1.73-.09,2.05,0Z"/>
</svg>