<?xml version="1.0" encoding="UTF-8"?>
<svg id="Layer_1" xmlns="http://www.w3.org/2000/svg" version="1.1" viewBox="0 0 37 32">
  <!-- Generator: Adobe Illustrator 30.0.0, SVG Export Plug-In . SVG Version: 2.1.1 Build 123)  -->
  <defs>
    <style>
      .st0 {
        fill: #209acf;
      }
    </style>
  </defs>
  <path class="st0" d="M27.81,23.28c-.49.49-1.7.85-2.38,1.13-1.8.73-7.06,2.99-8.72,2.86-1.51-.12-3.84-1.48-5.28-1.19-.38.08-.97.53-1.35.69-.09.14.62.97-.05,1.68-.25.27-2.32,1.11-2.69,1.08-.27-.02-.64-.22-.8-.44-.9-2.25-2.03-4.52-2.87-6.79-.25-.68-.68-1.39.05-1.98.18-.15,1.97-.88,2.23-.93,1.18-.23,1.38,1.09,1.48,1.07,2.1-.82,4.21-2.67,6.57-1.88.64.22,1.25.73,1.88.97,1.43.53,3.38.42,4.27,1.8,1.97-.32,5.38-2.14,7.28-1.44,1.5.55,1.37,2.39.37,3.37ZM19.77,23.58c-.42.42-1.05.63-1.63.53l-4.8-1.31c-.32-.25-.05-.64.3-.61,1.43.23,3.03.98,4.41,1.19,1.22.19,2.07-.98,1.3-1.91-.57-.69-2.93-.94-3.88-1.32-.89-.35-1.47-1.02-2.57-1.1-1.61-.11-3.67,1.58-5.21,2.01l2.09,4.98c.12.03,1.22-.63,1.54-.69,1.54-.29,3.59.87,5.13,1.13.97.17,1.77-.14,2.68-.44,2.64-.87,5.28-2.14,7.9-3.09.56-.36.99-1.22.72-1.87-.36-.89-1.75-.65-2.49-.5-1.57.31-3.22,1.05-4.8,1.41-.23.15-.18.66-.32,1-.06.14-.28.46-.39.57ZM9.5,27.97c.11-.11.15-.33.09-.48l-3.11-7.28c-.12-.17-.23-.14-.41-.11-.17.03-1.83.73-1.9.8-.06.07-.09.16-.11.25l3.06,7.54c.29.29,2.25-.56,2.39-.71Z"/>
  <path class="st0" d="M13.16,14.19c-.42-.4-1.31-.2-1.54-.75-.09-.21-.1-1.72-.05-1.98.17-.88,1.66-.26,1.91-1.45.21-1.02-.67-1.1-.46-1.99.06-.24,1.1-1.33,1.33-1.42.89-.37,1.08.62,2.14.41,1.15-.23.63-1.58,1.3-1.86.28-.12,1.82-.09,2.11.02.52.21.38.62.5,1.02.21.66.8,1.02,1.49.81.61-.18-.01-.67-.03-.95-.02-.33.58-1.01.87-1.06.43-.07.67.36,1.07.16.3-.16.08-.78.76-.87.25-.03.81-.02,1.02.11.27.19.18.71.43.8.37.13.61-.32,1.08-.17.09.03.69.61.73.69.23.51-.27.77-.14,1.15.09.25.61.16.8.43.15.21.16.94.09,1.19-.12.42-.71.32-.85.58-.2.39.23.63.16,1.07-.05.3-.74.89-1.06.87-.21-.01-.87-.62-.97-.04-.03.15.25.26.3.5s.04,1.7-.02,1.91c-.22.75-1.73.24-1.91,1.45-.15,1.04.96,1.28.3,2.23-.08.12-1.05,1.09-1.12,1.12-.89.38-1.15-.64-2.16-.43-1.1.22-.66,1.59-1.3,1.86-.21.09-1.83.1-2.06.03-.75-.22-.24-1.73-1.45-1.91-.93-.14-1.17.73-2.01.48-.09-.03-1.24-1.14-1.3-1.25-.41-.71.18-.94.33-1.41s.11-1.01-.26-1.36ZM25.1,5c-.52-.12-.43.24-.65.51-.27.34-.59.45-1.02.41-.23-.02-.47-.24-.61-.12-.35.3.24.7-.07,1.36-.19.4-.9.59-.9.84,0,.28.63.25.87.76.32.68-.13.82.05,1.38.21.14,1.04-.47,1.64.2.18.2.17.67.45.67.24,0,.43-.7.84-.9.65-.31.77.08,1.1.08.54-.01.17-.52.15-.76-.04-.4.05-.71.36-.97.26-.23.79-.25.5-.71-.87-.12-1.06-1.03-.69-1.73-.34-.47-.34-.14-.71-.1-.68.07-1.22-.21-1.28-.92ZM25.41,13.13v-1.53c-.37.18-1.15.19-1.37-.21-.1-.18-.05-.49-.23-.61-.33-.23-.49.13-.72.19-.45.13-.71-.28-1.04-.49.57,1.17.69,2.32.12,3.53-1.26,2.66-5.23,2.75-6.59.14-2.12-4.09,3.47-7.58,6.22-3.98-.06-.4.55-.91.23-1.2-.17-.15-.51-.04-.74-.33-.25-.32-.08-.75-.17-.9-.02-.03-.35-.13-.46-.2-.7-.46-1.02-.86-1.06-1.74h-1.46c-.28,1.87-1.91,2.49-3.46,1.44-.22.23-1.05.85-.97,1.13,1.14,1.25.27,3.24-1.43,3.23l.05,1.53c1.65.12,2.53,1.94,1.38,3.21-.05.26.91,1.15,1.06,1.15,1.45-1.16,3.09-.31,3.37,1.43l1.45-.02c.07-1.69,1.95-2.58,3.24-1.43.29.08.91-.75,1.13-.97-1.04-1.48-.44-3.23,1.44-3.39ZM21.83,12.38c0-1.65-1.34-2.99-2.99-2.99s-2.99,1.34-2.99,2.99,1.34,2.99,2.99,2.99,2.99-1.34,2.99-2.99Z"/>
  <path class="st0" d="M26.83,7.97c0,1.08-.88,1.96-1.96,1.96s-1.96-.88-1.96-1.96.88-1.96,1.96-1.96,1.96.88,1.96,1.96ZM26.12,7.98c0-.69-.56-1.25-1.25-1.25s-1.25.56-1.25,1.25.56,1.25,1.25,1.25,1.25-.56,1.25-1.25Z"/>
</svg>