<?xml version="1.0" encoding="UTF-8"?>
<svg id="Layer_1" xmlns="http://www.w3.org/2000/svg" version="1.1" viewBox="0 0 37 32">
  <!-- Generator: Adobe Illustrator 30.0.0, SVG Export Plug-In . SVG Version: 2.1.1 Build 123)  -->
  <defs>
    <style>
      .st0 {
        fill: #209acf;
      }
    </style>
  </defs>
  <path class="st0" d="M27.22,10.85v6.59c.55-.58.83-1.08,1.52-1.53.23-.15.87-.56,1.09-.46.1.07.17.14.17.27.04,1.92-1.91,3.59-2.77,5.18-.13,1.25.1,2.63-.02,3.86-.06.63-.51,1.02-1.13,1.1-.31.04-1.39.15-1.19-.42.11-.32,1.73.02,1.73-.5v-3.15l-3.98,5.57c-1.09.75-2.09-.52-1.26-1.5h-7.61c-.19,0-.27-.42-.15-.58h8.24l4.73-6.85c.26-2.26-.27-5.05.02-7.25.02-.17.04-.29.2-.39l.39.05ZM29.26,16.28l-.77.53c-1.99,3.14-4.58,6.13-6.52,9.28-.15.25-.49.68-.08.9.33.17.63-.41.81-.65,2.31-3.01,4.37-6.35,6.51-9.48l.04-.59Z"/>
  <path class="st0" d="M21.24,19.41c-.17.2-.01.61-.49.49-.61-.64.38-1,.75-1.34,4.14-3.81-.93-9.44-4.94-6.58-1.86,1.32-2.32,3.93-.96,5.79.72.98,1.96,1.12,1.63,2.59h.78c-.03-.35.05-.76-.02-1.09-.09-.41-1.77-1.43-1.43-1.9.3-.42.76.44.91.58.89.86,1.34.88,1.12,2.42h.68c.02-.33-.04-.68,0-1.01.12-.87.86-1.05,1.35-1.66,1.1-1.38.63-3.48-1.39-2.67-.51-.54.32-.77.76-.78,1.91-.05,2.15,2.2,1.29,3.53-.62.96-1.78,1.1-1.44,2.58.27.05,1.15-.14,1.25.16.28,2.1-.55,3.29-2.75,3.04-1.91-.22-1.72-2.6-1.71-4-3.38-2.03-3.17-7.23.65-8.6,4.73-1.7,8.42,4.11,5.04,7.66-.28.29-.94.62-1.09.8ZM20.54,20.93h-3.3c-.05,1.54.54,2.19,2.09,2.04,1.16-.11,1.3-1.05,1.21-2.04Z"/>
  <path class="st0" d="M27.11,5.31c.05-.07,0-.28.06-.37l.12-.08,2.64-.19c.45,1.82.54,3.72.48,5.59l-2.47.39c-.41-.02-.28-.56-.39-.58l-1.88.2c.06,1.53-.34,2.43-2.02,2.31-.26-.88-.59-2.49-1.38-3.03s-3.3-.93-3.66-1.38c-.47-.58,0-.83,0-1.14,0-.04-.44-.21-.46-.7-.02-.39,1.21-1.77,1.59-1.85.45-.1,1.08.13,1.32.06.15-.04.38-.4.68-.49.58-.19,1.45.14,2.01.36,1.16.47,1.45,1.14,2.86,1.01.1,0,.49-.08.52-.11ZM27.22,5.91c-.56.05-1.32.2-1.87.08-.29-.06-1.05-.68-1.46-.87-.38-.18-1.68-.69-2-.52-.12.07-.11.12,0,.2.33.22,1.51.37,1.46.87,0,.11-.06.2-.16.24-.16.05-1.35-.52-1.68-.62-.55-.16-1.73-.58-1.94.14.51.02,2.92.67,3,1.13-.03.23-.26.39-.48.29-.53-.29-1.16-.54-1.74-.69-.55-.14-1.43-.49-1.64.2.02.23,2.77.69,3.15,1.01.12.29.04.51-.29.49-.56-.03-1.67-.64-2.33-.68-.23.29-.41.56.02.75,1.02.45,2.69.51,3.6,1.34.7.64.92,1.92,1.31,2.73,1.26-.11.72-1.33,1.02-2.16l2.33-.34-.29-3.59ZM29.83,9.77c.07-1.49-.09-2.98-.32-4.45-.15-.22-1.49.06-1.8.1l.5,4.54,1.62-.2Z"/>
  <path class="st0" d="M10.09,15.88c.16.1.92-.47,1.33.17.28.44.44,2.64.73,3.43.5,1.36,2.04,1.44,3.04,2.19-.22.87-.43,1.65-1.49,1.69-.26,0-.9-.22-1.02-.04l-.47,1.88c.3-.04.55.05.53.4-.01.24-.52,2.3-.63,2.37l-.15.05c-1.33-.19-2.68-.34-3.98-.67-.35-.09-1.35-.26-1.4-.65-.02-.12.43-2.28.49-2.4l.54-.16c.05-.09.25-1.27.25-1.41-.02-.36-.62-1.35-.78-1.85-.16-.53-.41-1.57-.25-2.08.09-.3.55-.51.62-.74.17-.57-.23-1.08.31-1.63.15-.15,1.28-.94,1.45-.98.21-.04.49.03.66.13s.2.28.24.3ZM10.64,19.17l-.31.09c-.13-.04-.18-.14-.23-.25-.31-.7-.29-1.99-.43-2.76-.09-.31-.47-.3-.61-.07-.12.19.13,1.7.19,2.04s.47,1.2.3,1.45c-.08.11-.16.11-.28.08-.46-.12-.69-2.19-.74-2.65-.02-.17.04-.31-.15-.43-.45.29-.37.82-.34,1.3.06.79.34,1.56.57,2.31l-.24.26c-.45.08-.64-1.48-.86-1.74-.43,0,.12,1.9.2,2.13.25.74.77,1.28.71,2.08-.03.41-.22.9-.28,1.32l3.43.69.69-2.24c.91-.33,1.95.56,2.27-.82-.87-.51-2.11-.85-2.68-1.76-.44-.69-.81-3.75-.98-3.87-.18-.12-.57.19-.59.4-.04.49.31,1.51.38,2.05.02.14.04.28,0,.41ZM11.72,27.42c.03-.48.28-.99.35-1.45.01-.1.07-.17-.06-.24l-4.46-.92-.3,1.7,4.46.92Z"/>
  <path class="st0" d="M17.19,6.1c.13.04.17.29.15.42-.01.05-.23.16-.25.16h-2.18v2.57c0,.33-.69.92-1.02.92h-2.47v4.6s-.24.25-.34.25l-.24-.15v-5.14l3.63-3.63h2.71ZM11.91,9.59h1.99c.1,0,.44-.34.44-.44v-2.08c-.67.71-1.7,1.47-2.28,2.23-.07.1-.19.12-.14.29Z"/>
  <path class="st0" d="M17.82,15.31c-.4-.05-.89.05-1.02.48s.1,1.13-.61.87c-.49-2.14,2.54-2.66,2.87-.69.47,2.74-2.6,1.49-1.24-.65ZM18.4,15.8c-.28-.25-.31.71-.29.83.12,1.03.7-.45.29-.83Z"/>
  <rect class="st0" x="28.82" y="8.72" width=".54" height=".49"/>
  <circle class="st0" cx="10.95" cy="26.54" r=".3"/>
</svg>